<svg width="40" height="40" viewBox="0 0 40 40" fill="none" xmlns="http://www.w3.org/2000/svg">
<g>
<path fill-rule="evenodd" clip-rule="evenodd" d="M33.2575 34.4224L5.51074 6.67566L6.92496 5.26145L34.6717 33.0082L33.2575 34.4224Z" fill="white"/>
<path fill-rule="evenodd" clip-rule="evenodd" d="M13.4209 16H13C12.7348 16 12.4804 16.1054 12.2929 16.2929C12.1054 16.4805 12 16.7348 12 17V23C12 23.2652 12.1054 23.5196 12.2929 23.7071C12.4804 23.8947 12.7348 24 13 24H16.889H16.89L22.183 28.332C22.2563 28.3921 22.3451 28.4301 22.4391 28.4416C22.5331 28.4532 22.6284 28.4378 22.714 28.3972C22.7996 28.3567 22.872 28.2926 22.9226 28.2126C22.9732 28.1325 23.0001 28.0397 23 27.945V25.5791L13.4209 16ZM23 21.3365V24.1649L14.8351 16H16.889L17.315 15.6514L23 21.3365ZM27.2813 24.2035L25.8674 22.7897C26.1598 22.4895 26.4039 22.1443 26.5899 21.7663C26.8602 21.2167 27.0006 20.6124 27 20C27 18.57 26.25 17.315 25.12 16.608L26.559 15.169C27.3165 15.7262 27.9321 16.4539 28.3562 17.2931C28.7802 18.1324 29.0008 19.0597 29 20C29 21.637 28.3445 23.1207 27.2813 24.2035ZM23 19.9222L18.0928 15.015L22.183 11.668C22.2563 11.608 22.3451 11.57 22.4391 11.5584C22.5331 11.5469 22.6284 11.5623 22.714 11.6028C22.7996 11.6434 22.872 11.7074 22.9226 11.7875C22.9732 11.8675 23.0001 11.9603 23 12.055V19.9222Z" fill="white"/>
<rect x="1" y="1" width="38" height="38" rx="19" stroke="white" stroke-width="2"/>
</g>
</svg>