<svg width="849" height="43" viewBox="0 0 849 43" fill="none" xmlns="http://www.w3.org/2000/svg">
<path d="M231.835 38.2C232.395 37.5333 232.875 36.8533 233.275 36.16C233.675 35.4667 233.995 34.7467 234.235 34C234.475 33.2267 234.648 32.4133 234.755 31.56C234.862 30.68 234.915 29.7333 234.915 28.72V9.24H212.635V38.2H207.275V4.72H217.795C218.008 4.18667 218.195 3.68 218.355 3.2C218.542 2.69333 218.688 2.21333 218.795 1.76H225.075C224.808 2.74666 224.502 3.73333 224.155 4.72H240.195V28.72C240.195 30.5333 240.048 32.2533 239.755 33.88C239.462 35.48 238.955 36.92 238.235 38.2H231.835ZM231.435 12.36V31.44H216.155V12.36H231.435ZM220.555 27.28H227.035V16.56H220.555V27.28ZM245.475 4.52H251.315V17.76H264.115V4.52H269.955V36.32H264.115V22.6H251.315V36.32H245.475V4.52ZM271.883 4.52H278.243L285.843 31.16H285.923L293.443 4.52H299.843L290.243 36.32H281.443L271.883 4.52ZM300.164 4.52H306.524L314.124 31.16H314.204L321.724 4.52H328.124L318.524 36.32H309.724L300.164 4.52ZM335.645 18.36V1.8H340.485V7.32H347.645V11.96H340.485V18.36H347.165V38.2H330.565V18.36H335.645ZM348.085 38.2C349.472 36.3333 350.738 34.5733 351.885 32.92C353.058 31.2667 354.138 29.6667 355.125 28.12C354.432 26.2 353.832 24.16 353.325 22C352.818 19.84 352.405 17.52 352.085 15.04L348.085 15.36V10.84L351.565 10.56C351.432 9.2 351.325 7.8 351.245 6.36C351.192 4.92 351.152 3.41333 351.125 1.84H355.805C355.832 3.33333 355.872 4.77333 355.925 6.16C356.005 7.52 356.112 8.86667 356.245 10.2L366.325 9.36V13.88L356.725 14.68C357.125 17.4533 357.685 20.1067 358.405 22.64C359.018 21.52 359.592 20.44 360.125 19.4C360.658 18.3333 361.178 17.2533 361.685 16.16H366.485C365.472 18.4267 364.472 20.5467 363.485 22.52C362.498 24.4667 361.445 26.3867 360.325 28.28C361.765 31.7733 363.605 35.08 365.845 38.2H360.205C359.672 37.4267 359.165 36.6267 358.685 35.8C358.205 34.9733 357.738 34.1333 357.285 33.28C356.752 34.08 356.205 34.88 355.645 35.68C355.112 36.5067 354.552 37.3467 353.965 38.2H348.085ZM335.605 33.68H342.125V22.88H335.605V33.68ZM359.565 8.28C359.378 7.26667 359.152 6.24 358.885 5.2C358.645 4.13333 358.378 3.06667 358.085 2H362.685C362.978 2.98667 363.245 3.98667 363.485 5C363.752 6.01333 364.005 7.10667 364.245 8.28H359.565ZM370.325 38.2C371.152 36.3067 371.952 34.24 372.725 32C373.525 29.76 374.272 27.4267 374.965 25C375.658 22.5467 376.285 20.0533 376.845 17.52C377.432 14.96 377.952 12.4133 378.405 9.88H370.245V5.08H379.125C379.205 4.54667 379.272 4 379.325 3.44C379.405 2.88 379.472 2.33333 379.525 1.8H385.405C385.352 2.33333 385.285 2.88 385.205 3.44C385.152 4 385.085 4.54667 385.005 5.08H406.245V9.88H384.325C384.192 10.6 384.058 11.32 383.925 12.04C383.818 12.7333 383.698 13.4267 383.565 14.12H404.765C404.472 15.48 404.032 16.8667 403.445 18.28C402.858 19.6667 402.165 21.0667 401.365 22.48C400.592 23.8667 399.738 25.24 398.805 26.6C397.872 27.9333 396.898 29.2 395.885 30.4C397.405 31.68 399.005 32.9333 400.685 34.16C402.365 35.4133 404.205 36.76 406.205 38.2H397.845C396.965 37.64 396.072 37.0133 395.165 36.32C394.285 35.6267 393.392 34.88 392.485 34.08C391.578 34.9867 390.685 35.7867 389.805 36.48C388.925 37.1733 388.098 37.7467 387.325 38.2H379.045C382.725 35.8533 385.992 33.2933 388.845 30.52C387.645 29.2667 386.445 27.96 385.245 26.6C384.072 25.2133 382.912 23.7867 381.765 22.32C381.018 25.3333 380.205 28.2 379.325 30.92C378.445 33.6133 377.512 36.04 376.525 38.2H370.325ZM382.645 18.76L382.205 20.52H386.205C387.138 21.72 388.098 22.8533 389.085 23.92C390.072 24.9867 391.098 26.0267 392.165 27.04C393.365 25.6533 394.445 24.2667 395.405 22.88C396.365 21.4933 397.192 20.12 397.885 18.76H382.645ZM445.765 3.08V29.44C445.738 30.9067 445.578 32.4133 445.285 33.96C444.992 35.5067 444.485 36.92 443.765 38.2H437.765C438.618 37.1067 439.338 35.8133 439.925 34.32C440.512 32.8533 440.818 31.2267 440.845 29.44V7.64H430.645V3.08H445.765ZM409.845 20C411.072 16.4267 412.072 13.0667 412.845 9.92C413.618 6.74667 414.165 4.06667 414.485 1.88H419.525C419.125 4.62666 418.632 7.26667 418.045 9.8V38.2H413.165V20H409.845ZM421.445 10.04H426.365V38.2H421.445V10.04ZM424.245 8.8C423.952 7.54666 423.618 6.32 423.245 5.12C422.898 3.89333 422.538 2.78667 422.165 1.8H427.125C427.552 2.76 427.938 3.8 428.285 4.92C428.658 6.04 429.032 7.33333 429.405 8.8H424.245ZM468.685 38.2H450.045V33.6H456.925V28.36H450.645V23.8H456.925V19.68H450.085C451.045 17.36 451.845 15.1867 452.485 13.16C453.152 11.1333 453.725 9.05333 454.205 6.92H450.485V2.56H468.445V6.92H459.205C458.832 8.52 458.458 9.97333 458.085 11.28C457.712 12.56 457.298 13.88 456.845 15.24H463.565C463.298 14.1467 463.018 13.08 462.725 12.04C462.432 11 462.138 9.97333 461.845 8.96H466.205C466.552 10.08 466.858 11.1467 467.125 12.16C467.418 13.1467 467.698 14.1867 467.965 15.28C468.685 12.9867 469.285 10.7067 469.765 8.44C470.272 6.14667 470.685 3.92 471.005 1.76H475.805C475.725 2.24 475.645 2.73333 475.565 3.24C475.485 3.74666 475.392 4.25333 475.285 4.76H486.525V8.84H484.925C484.472 12.36 483.832 15.6267 483.005 18.64C482.178 21.6533 481.245 24.4533 480.205 27.04C481.165 29.0933 482.152 31.0533 483.165 32.92C484.205 34.7867 485.218 36.56 486.205 38.24H480.805C480.298 37.3867 479.778 36.48 479.245 35.52C478.738 34.56 478.218 33.5467 477.685 32.48C477.125 33.5733 476.552 34.5867 475.965 35.52C475.405 36.48 474.845 37.3867 474.285 38.24H468.685V38.2ZM462.125 19.68V23.8H468.605V28.36H462.125V33.6H469.125V37.6C470.165 36.1067 471.192 34.4667 472.205 32.68C473.245 30.8933 474.232 28.96 475.165 26.88C474.472 25.1467 473.805 23.3467 473.165 21.48C472.525 19.6133 471.952 17.68 471.445 15.68H468.085L469.005 19.68H462.125ZM477.565 20.88C478.258 18.96 478.858 17 479.365 15C479.872 13 480.272 10.9467 480.565 8.84H474.485L474.365 9.44C474.685 11.36 475.112 13.28 475.645 15.2C476.205 17.0933 476.845 18.9867 477.565 20.88ZM489.965 18.88C490.658 17.76 491.245 16.5867 491.725 15.36C492.232 14.1067 492.618 12.88 492.885 11.68H497.485L497.285 12.72H509.085V14.48C509.832 12.2133 510.445 10.04 510.925 7.96C511.405 5.85333 511.792 3.8 512.085 1.8H516.765C516.685 2.28 516.605 2.77333 516.525 3.28C516.445 3.76 516.352 4.25333 516.245 4.76H526.445V8.72H524.685C524.365 12.08 523.845 15.24 523.125 18.2C522.405 21.1333 521.552 23.8933 520.565 26.48C521.498 28.7467 522.458 30.8667 523.445 32.84C524.432 34.7867 525.392 36.5733 526.325 38.2H521.165C520.658 37.3467 520.138 36.4267 519.605 35.44C519.098 34.4533 518.578 33.3867 518.045 32.24C517.485 33.36 516.912 34.4 516.325 35.36C515.738 36.3467 515.152 37.2933 514.565 38.2H509.285C510.352 36.68 511.432 34.9333 512.525 32.96C513.645 30.9867 514.712 28.8267 515.725 26.48C515.085 24.72 514.485 22.88 513.925 20.96C513.392 19.0133 512.898 16.96 512.445 14.8H509.085V27.88C509.085 30.1733 508.965 32.1333 508.725 33.76C508.485 35.3867 508.085 36.88 507.525 38.24H501.845C502.272 37.6 502.645 36.96 502.965 36.32C503.285 35.68 503.552 34.96 503.765 34.16C503.978 33.3867 504.138 32.4933 504.245 31.48C504.352 30.44 504.405 29.2267 504.405 27.84V16.64H496.045C495.858 17.0667 495.672 17.4667 495.485 17.84C495.298 18.2133 495.112 18.56 494.925 18.88H489.965ZM501.885 19.68V36.32H491.045V19.68H501.885ZM506.525 4.36H509.565V8.28H506.525V11H501.765V8.28H497.805V11H493.085V8.28H490.005V4.36H493.085V1.8H497.805V4.36H501.765V1.8H506.525V4.36ZM518.125 19.88C518.658 18.0933 519.112 16.2667 519.485 14.4C519.885 12.5333 520.178 10.64 520.365 8.72H515.525C515.792 10.64 516.138 12.5333 516.565 14.4C517.018 16.24 517.538 18.0667 518.125 19.88ZM494.925 32.64H498.125V23.44H494.925V32.64ZM536.485 40.24C537.472 39.9467 538.205 39.48 538.685 38.84C539.165 38.2267 539.432 37.3867 539.485 36.32H536.805V29.52H542.805V35.24C542.805 37.4 542.298 39.0667 541.285 40.24C540.272 41.4133 538.765 42.1867 536.765 42.56L536.485 40.24ZM577.245 23.88V16.92H570.565V12.44H577.245V7.96L571.445 8.52V4.08L587.205 2.56V6.96L582.645 7.4V12.44H590.005C589.872 10.84 589.765 9.17333 589.685 7.44C589.632 5.68 589.605 3.8 589.605 1.8H594.845C594.845 3.8 594.885 5.68 594.965 7.44C595.072 9.2 595.192 10.8667 595.325 12.44H606.125V16.92H595.845C596.298 19.72 596.832 22.1467 597.445 24.2C598.058 23.3733 598.645 22.5467 599.205 21.72C599.765 20.8667 600.298 20 600.805 19.12H606.125C605.005 21.12 603.885 22.96 602.765 24.64C601.672 26.32 600.552 27.88 599.405 29.32C600.312 31.1867 601.325 32.8133 602.445 34.2C603.565 35.5867 604.765 36.92 606.045 38.2H598.645C598.085 37.5333 597.538 36.8267 597.005 36.08C596.472 35.36 595.965 34.5733 595.485 33.72C594.632 34.5733 593.778 35.36 592.925 36.08C592.072 36.8267 591.218 37.5333 590.365 38.2H583.125C585.018 36.7867 586.818 35.3333 588.525 33.84C590.232 32.32 591.845 30.7333 593.365 29.08C592.752 27.4533 592.192 25.6533 591.685 23.68C591.205 21.68 590.805 19.4267 590.485 16.92H582.645V22L588.045 20.08V25.24L582.645 27.16C582.645 29.6133 582.445 31.7067 582.045 33.44C581.645 35.1467 580.978 36.7333 580.045 38.2H573.285C574.352 37.0533 575.205 35.7067 575.845 34.16C576.512 32.6133 576.938 30.92 577.125 29.08L570.525 31.4V26.24L577.245 23.88ZM599.645 10.64C599.432 9.28 599.138 7.89333 598.765 6.48C598.418 5.04 598.032 3.72 597.605 2.52H602.525C602.978 3.66667 603.405 4.94667 603.805 6.36C604.205 7.77333 604.552 9.2 604.845 10.64H599.645ZM645.765 3.08V29.44C645.738 30.9067 645.578 32.4133 645.285 33.96C644.992 35.5067 644.485 36.92 643.765 38.2H637.765C638.618 37.1067 639.338 35.8133 639.925 34.32C640.512 32.8533 640.818 31.2267 640.845 29.44V7.64H630.645V3.08H645.765ZM609.845 20C611.072 16.4267 612.072 13.0667 612.845 9.92C613.618 6.74667 614.165 4.06667 614.485 1.88H619.525C619.125 4.62666 618.632 7.26667 618.045 9.8V38.2H613.165V20H609.845ZM621.445 10.04H626.365V38.2H621.445V10.04ZM624.245 8.8C623.952 7.54666 623.618 6.32 623.245 5.12C622.898 3.89333 622.538 2.78667 622.165 1.8H627.125C627.552 2.76 627.938 3.8 628.285 4.92C628.658 6.04 629.032 7.33333 629.405 8.8H624.245ZM672.885 11.72V1.8H678.325V11.72H685.685V16.76H678.325V33.52H686.445V38.16H664.205V33.52H672.885V16.76H665.445V11.72H672.885ZM662.205 26.2C662.152 25.32 662.085 24.3733 662.005 23.36C661.952 22.3467 661.885 21.32 661.805 20.28C661.725 19.24 661.632 18.2133 661.525 17.2C661.445 16.1867 661.352 15.2533 661.245 14.4C661.112 14.72 660.992 15.0533 660.885 15.4C660.805 15.72 660.712 16.04 660.605 16.36V38.2H655.565V27.8L655.325 28.2H649.725C652.045 24.2533 653.992 20.2 655.565 16.04V15.84H655.605C655.845 15.2267 656.058 14.6133 656.245 14C656.458 13.36 656.672 12.72 656.885 12.08H650.165V7.84H663.045C662.805 8.88 662.538 9.92 662.245 10.96C661.978 12 661.672 13.04 661.325 14.08H664.245C664.352 14.88 664.458 15.7867 664.565 16.8C664.672 17.8133 664.778 18.8667 664.885 19.96C664.992 21.0267 665.085 22.0933 665.165 23.16C665.245 24.2267 665.312 25.24 665.365 26.2H662.205ZM655.725 6.68C655.565 5.90667 655.365 5.10667 655.125 4.28C654.912 3.42667 654.658 2.6 654.365 1.8H659.565C659.885 2.54667 660.165 3.32 660.405 4.12C660.672 4.92 660.925 5.77333 661.165 6.68H655.725ZM691.525 38.2V2.52H725.325V7.2H696.765V33.56H725.405V38.2H691.525ZM717.125 31.76C716.272 30.88 715.378 29.9067 714.445 28.84C713.512 27.7467 712.552 26.6 711.565 25.4C710.578 26.6 709.592 27.7467 708.605 28.84C707.645 29.9067 706.725 30.88 705.845 31.76H698.205C699.965 30 701.658 28.2133 703.285 26.4C704.938 24.5867 706.498 22.7733 707.965 20.96C706.232 18.7467 704.592 16.6 703.045 14.52C701.498 12.4133 700.205 10.5733 699.165 9H706.045C706.738 10.0133 707.538 11.16 708.445 12.44C709.378 13.6933 710.392 15.04 711.485 16.48C712.445 15.1467 713.338 13.8667 714.165 12.64C714.992 11.3867 715.725 10.1733 716.365 9H723.205C722.165 10.84 720.938 12.8 719.525 14.88C718.112 16.9333 716.618 18.9867 715.045 21.04C716.618 22.9867 718.205 24.88 719.805 26.72C721.405 28.56 722.925 30.24 724.365 31.76H717.125ZM732.765 25.56V9.8H745.445V6.96H730.485V2.48H765.965V6.96H751.125V9.8H763.845V25.56H766.485V29.96H763.845V30.16C763.845 31.92 763.618 33.4933 763.165 34.88C762.738 36.2933 762.245 37.4 761.685 38.2H755.005C755.965 37.16 756.752 35.9867 757.365 34.68C758.005 33.3733 758.338 31.8667 758.365 30.16V29.96H738.245V38.2H732.765V29.96H730.045V25.56H732.765ZM751.125 14.12V17.84H758.365V14.12H751.125ZM738.245 17.84H745.445V14.12H738.245V17.84ZM751.125 25.56H758.365V21.88H751.125V25.56ZM738.245 25.56H745.445V21.88H738.245V25.56ZM797.805 7.56H778.725V26.76H773.245V2.8H803.285V26.68H797.805V7.56ZM771.565 38.2C773.138 36.9467 774.552 35.72 775.805 34.52C777.085 33.32 778.218 32.0933 779.205 30.84C780.218 29.56 781.085 28.2267 781.805 26.84C782.552 25.4267 783.165 23.88 783.645 22.2C784.152 20.52 784.552 18.68 784.845 16.68C785.138 14.6533 785.352 12.3867 785.485 9.88H790.925C790.658 15.16 790.045 19.68 789.085 23.44H793.565V33.56H806.125V38.2H788.245V26.28C787.392 28.7867 786.312 31 785.005 32.92C783.698 34.84 782.098 36.6 780.205 38.2H771.565ZM816.645 4.52H822.925L822.245 25.88H817.325L816.645 4.52ZM816.765 29.24H822.805V36.32H816.765V29.24Z" fill="white"/>
<g clip-path="url(#clip0_13194_92349)">
<path fill-rule="evenodd" clip-rule="evenodd" d="M24.5864 1.99951L21.5205 6.72119L27.4561 15.8622L36.4591 1.99951H24.5864Z" fill="white"/>
<path fill-rule="evenodd" clip-rule="evenodd" d="M0.500977 39.0845H12.3736L24.4111 20.5485L18.4747 11.4075L0.500977 39.0845Z" fill="white"/>
<path fill-rule="evenodd" clip-rule="evenodd" d="M0.500977 1.99951L24.5843 39.084H36.4569L12.3736 1.99951H0.500977Z" fill="white"/>
<rect x="53.7061" y="2.04932" width="4.69737" height="35.7989" fill="white"/>
<path d="M62.6062 16.6359C62.6062 14.7322 62.6062 12.9027 62.4331 11.1474C62.26 9.39207 62.4331 7.78507 62.2106 6.32642H59.2686C59.2686 7.78507 59.2686 9.39207 59.4169 11.271C59.5652 13.15 59.4169 14.9053 59.5652 16.8337C59.7136 18.7621 59.5652 20.6658 59.5652 22.5942C59.5652 24.5226 59.5652 26.3521 59.5652 28.0827H62.8039C62.8039 26.3026 62.8039 24.4484 62.8039 22.4953L62.6062 16.6359Z" fill="white"/>
<path d="M49.5772 11.6422C49.5772 13.6695 49.5772 15.771 49.3547 17.9219C49.1322 20.0728 49.1569 22.2237 49.058 24.251C48.9591 26.2782 48.7119 28.2314 48.7119 29.8136H52.0248C52.0248 28.1819 52.1731 26.3277 52.272 24.251C52.3709 22.1742 52.4451 20.0728 52.5193 17.9219C52.5934 15.771 52.5193 13.6695 52.6429 11.6422C52.7665 9.61493 52.6429 7.8596 52.6429 6.37622H49.6514C49.6514 7.8596 49.6267 9.61493 49.5772 11.6422Z" fill="white"/>
<path d="M76.6243 12.0375H84.0906V8.74938H76.6243V7.04349H84.4615V3.70589H76.6243V2H71.6302V3.70589H63.7189V7.04349H71.6302V8.74938H64.1639V12.0375H71.6302V13.7682H63.3975V17.1305H84.8818V13.7682H76.6243V12.0375Z" fill="white"/>
<path fill-rule="evenodd" clip-rule="evenodd" d="M64.3145 37.8483H69.2591V32.9037H79.1483C79.0302 33.8276 78.7718 34.728 78.3818 35.5738C78.0297 36.3988 77.5546 37.1657 76.9726 37.8483H82.5848C83.0841 37.0194 83.4277 36.1061 83.5984 35.1535C83.8014 34.0027 83.9007 32.8361 83.8951 31.6676V18.416H64.3145V37.8483ZM69.2578 22.0501H79.1471V24.0527H69.2578V22.0501ZM79.1471 27.415H69.2578V29.4176H79.1471V27.415Z" fill="white"/>
<path fill-rule="evenodd" clip-rule="evenodd" d="M118.185 30.4806C119.4 28.24 120.442 25.9092 121.3 23.5087C122.281 20.8394 123.107 18.1153 123.772 15.3501H108.048V7.0679H117.937V9.04574C117.962 9.954 117.819 10.8591 117.517 11.7158C117.13 12.5878 116.546 13.358 115.811 13.9656H121.646C122.111 13.2531 122.454 12.4675 122.659 11.6417C122.868 10.5171 122.942 9.37194 122.882 8.22988V2.86499H103.104V37.8481H113.462C113.588 37.6777 113.714 37.5095 113.84 37.3422L113.84 37.3419L113.84 37.3418C114.133 36.951 114.422 36.565 114.699 36.1669L115.836 34.461C116.686 33.1749 117.47 31.8464 118.185 30.4806ZM108.047 37.4032V22.3716C108.838 23.8797 109.629 25.3136 110.519 26.6734C110.878 27.2209 111.22 27.7644 111.561 28.3055L111.561 28.3055C112.067 29.1082 112.569 29.9057 113.115 30.7032C111.594 33.0589 109.9 35.2984 108.047 37.4032ZM113.733 23.8053C114.277 24.6953 114.846 25.6101 115.464 26.5248C116.576 24.2837 117.47 21.9407 118.134 19.5282H108.047V20.9374H112.102C112.621 21.9511 113.189 22.9153 113.733 23.8053Z" fill="white"/>
<path d="M97.9096 2H92.965V7.85935H88.8857V12.1612H92.8661V20.3939L88.8857 21.2592V25.9813L92.8661 25.116V27.3164C92.8698 28.3072 92.8203 29.2976 92.7178 30.2831C92.5771 32.0408 92.1685 33.7666 91.5064 35.4008C91.1653 36.2585 90.7518 37.0856 90.2702 37.8731H96.1296C96.7634 36.4206 97.2039 34.8912 97.4399 33.3241C97.7707 31.3472 97.9278 29.3453 97.9096 27.3411V24.0282L101.494 23.2371V18.5397L97.9096 19.3061V12.1612H101.717V7.85935H97.9096V2Z" fill="white"/>
<path d="M155.614 16.7349H162.858V11.7656H155.614V2H150.249V11.7656H142.931V16.7349H150.249V33.2252H141.695V37.7989H163.6V33.2252H155.614V16.7349Z" fill="white"/>
<path d="M133.339 6.79626H138.704C138.481 5.90624 138.234 5.06565 137.987 4.32396C137.74 3.58227 137.443 2.74169 137.122 2H132.004C132.301 2.79114 132.548 3.607 132.77 4.4723C132.993 5.33761 133.191 6.05457 133.339 6.79626Z" fill="white"/>
<path d="M142.66 23.0393C142.66 21.9762 142.511 20.9132 142.388 19.8501C142.264 18.787 142.165 17.7733 142.066 16.8339C141.967 15.8944 141.844 14.9549 141.745 14.1638H138.877C139.199 13.1501 139.52 12.1118 139.792 11.0981C140.064 10.0845 140.311 9.04611 140.558 8.03247H127.826V12.1118H134.031C132.517 16.9583 130.624 21.6784 128.37 26.2286C128.048 26.822 127.776 27.4153 127.455 27.9839H132.771C133.157 27.2701 133.503 26.5356 133.809 25.7836V37.8484H138.284V16.3394L138.58 15.3752C138.623 15.0331 138.689 14.6944 138.778 14.3616C138.894 15.2021 138.992 16.1169 139.075 17.1058C139.075 18.1195 139.248 19.1331 139.347 20.1467C139.446 21.1604 139.495 22.174 139.545 23.1877C139.594 24.2013 139.545 25.1161 139.742 25.9814H142.833C142.783 25.0666 142.66 24.0777 142.66 23.0393Z" fill="white"/>
<path d="M182.832 31.4943C184.741 29.8831 186.526 28.1311 188.172 26.253C189.804 28.0084 191.559 29.7884 193.488 31.4943H200.633C200.633 31.4943 196.553 26.7228 192.103 21.4321C195.123 17.5175 197.85 13.3858 200.262 9.07056H192.845C191.54 11.693 189.974 14.1778 188.172 16.4875C185.997 13.669 184.019 11.0237 182.832 9.07056H175.811C178.234 13.4851 181.038 17.6793 184.192 21.6051C181.72 24.4483 178.876 27.7364 175.168 31.4943H182.832Z" fill="white"/>
<path d="M173.763 33.2747V7.31552H201.873V2.71704H168.596V37.8484H201.972V33.2747H173.763Z" fill="white"/>
<path d="M124.068 37.8485H118.926C113.95 33.001 109.925 27.2655 107.059 20.938H112.226C115.259 27.1625 119.256 32.8695 124.068 37.8485Z" fill="white"/>
</g>
<defs>
<clipPath id="clip0_13194_92349">
<rect width="201.647" height="37.0845" fill="white" transform="translate(0.500977 2)"/>
</clipPath>
</defs>
</svg>
