<svg width="202" height="30" viewBox="0 0 202 30" fill="none" xmlns="http://www.w3.org/2000/svg">
<path d="M0.0636253 16.432V14.128L5.34363 1.04H9.11963L4.47963 15.28L9.11963 29.52H5.34363L0.0636253 16.432ZM9.08763 16.432V14.128L14.3676 1.04H18.1436L13.5036 15.28L18.1436 29.52H14.3676L9.08763 16.432ZM32.1916 29.36C33.4503 27.632 34.5596 25.8933 35.5196 24.144C36.4796 22.3947 37.301 20.6667 37.9836 18.96H32.1596V15.472H40.1596V5.936H32.4476V2.576H40.1596V0.239998H44.4796V2.576H52.0636V5.936H44.4796V15.472H52.4476V18.96H46.4956C47.2423 20.56 48.117 22.2453 49.1196 24.016C50.1223 25.7867 51.1676 27.568 52.2556 29.36H47.2636C46.3676 27.6747 45.5143 25.9467 44.7036 24.176C43.9143 22.384 43.1996 20.6453 42.5596 18.96H42.2076C41.589 20.7733 40.8423 22.544 39.9676 24.272C39.1143 25.9787 38.197 27.6747 37.2156 29.36H32.1916ZM23.3916 14.864C23.9036 13.712 24.373 12.4853 24.7996 11.184C25.2476 9.86133 25.653 8.56 26.0156 7.28C26.3996 6 26.7303 4.77333 27.0076 3.6C27.3063 2.40533 27.5623 1.34933 27.7756 0.431999H31.9996C31.765 1.37067 31.509 2.39467 31.2316 3.504C30.9543 4.592 30.645 5.72267 30.3036 6.896V29.36H26.1436V14.864H23.3916ZM45.8556 13.968C46.069 13.328 46.2503 12.7307 46.3996 12.176C46.549 11.6 46.6876 11.0453 46.8156 10.512C46.9436 9.97867 47.0503 9.456 47.1356 8.944C47.221 8.41067 47.3063 7.856 47.3916 7.28H51.1036C51.0183 7.856 50.9223 8.41067 50.8156 8.944C50.7303 9.456 50.6236 9.97867 50.4956 10.512C50.3676 11.0453 50.229 11.6 50.0796 12.176C49.9516 12.7307 49.7916 13.328 49.5996 13.968H45.8556ZM34.4956 13.968C34.325 12.752 34.133 11.632 33.9196 10.608C33.7063 9.584 33.4396 8.48533 33.1196 7.312H36.7996C37.0983 8.336 37.3543 9.37067 37.5676 10.416C37.8023 11.44 38.0156 12.624 38.2076 13.968H34.4956ZM82.4316 19.504V29.36H57.5676V19.504H82.4316ZM75.9036 18.608C75.0716 18.3307 74.165 18.0107 73.1836 17.648C72.2023 17.264 71.1676 16.848 70.0796 16.4C69.1836 16.8267 68.2876 17.232 67.3916 17.616C66.4956 17.9787 65.6103 18.3093 64.7356 18.608H55.8716C57.685 18.0107 59.445 17.3707 61.1516 16.688C62.8796 16.0053 64.533 15.312 66.1116 14.608C65.429 14.288 64.757 13.968 64.0956 13.648C63.4556 13.328 62.8263 13.008 62.2076 12.688C61.909 12.9867 61.6316 13.264 61.3756 13.52C61.1196 13.776 60.8743 14 60.6396 14.192H55.4876C56.0636 13.6587 56.693 13.04 57.3756 12.336C58.0796 11.632 58.7623 10.9173 59.4236 10.192C60.085 9.44533 60.693 8.73067 61.2476 8.048C61.8236 7.344 62.2716 6.736 62.5916 6.224H67.6476C67.477 6.45867 67.3063 6.704 67.1356 6.96C66.965 7.19467 66.7836 7.44 66.5916 7.696H83.0396C81.9303 8.848 80.597 9.98933 79.0396 11.12C77.4823 12.2507 75.797 13.328 73.9836 14.352C74.773 14.6933 75.573 15.0347 76.3836 15.376C77.2156 15.696 78.069 16.0267 78.9436 16.368C79.8183 16.7093 80.7463 17.072 81.7276 17.456C82.709 17.8187 83.765 18.2027 84.8956 18.608H75.9036ZM79.4236 5.2H60.5436V7.184H56.1916V1.84H67.2636C67.157 1.52 67.0396 1.22133 66.9116 0.943998C66.805 0.645332 66.709 0.410665 66.6236 0.239998H72.1276C72.213 0.431998 72.2983 0.666665 72.3836 0.943998C72.4903 1.22133 72.597 1.52 72.7036 1.84H83.7756V7.184H79.4236V5.2ZM62.0796 26.128H77.9196V22.736H62.0796V26.128ZM64.2556 10.512L63.3596 11.504H66.3676C66.453 11.5467 66.613 11.6213 66.8476 11.728C67.0823 11.8133 67.349 11.92 67.6476 12.048C67.9463 12.176 68.2663 12.3147 68.6076 12.464C68.9703 12.6133 69.3223 12.752 69.6636 12.88C70.453 12.4747 71.1996 12.08 71.9036 11.696C72.6076 11.2907 73.2583 10.896 73.8556 10.512H64.2556ZM103.84 29.36C104.501 28.656 105.056 27.76 105.504 26.672C105.973 25.6053 106.208 24.368 106.208 22.96V13.232H97.9836V9.456H116.608V13.232H110.816V22.96C110.816 24.432 110.666 25.712 110.368 26.8C110.09 27.888 109.77 28.7413 109.408 29.36H103.84ZM87.3596 17.552C88.5116 15.9093 89.493 14.3733 90.3036 12.944C91.1143 11.4933 91.8183 10.128 92.4156 8.848H97.2476C96.885 9.616 96.5116 10.384 96.1276 11.152C95.765 11.8987 95.3703 12.6453 94.9436 13.392V29.36H90.4636V17.552H87.3596ZM115.744 1.36V5.008H98.7196V1.36H115.744ZM87.4556 8.272C88.437 6.8 89.333 5.40267 90.1436 4.08C90.9756 2.736 91.701 1.456 92.3196 0.239998H97.1196C96.373 1.776 95.6156 3.19467 94.8476 4.496C94.101 5.776 93.2796 7.03467 92.3836 8.272H87.4556ZM126.528 15.28L121.888 1.04H125.664L130.944 14.128V16.432L125.664 29.52H121.888L126.528 15.28ZM135.552 15.28L130.912 1.04H134.688L139.968 14.128V16.432L134.688 29.52H130.912L135.552 15.28ZM170.06 21.82V21.49C170.251 21.358 170.478 21.1967 170.742 21.006C171.006 20.8153 171.27 20.6173 171.534 20.412C171.813 20.192 172.077 19.9793 172.326 19.774C172.59 19.554 172.81 19.356 172.986 19.18H162.91V16.958H178.64C178.332 17.3247 177.936 17.7353 177.452 18.19C176.983 18.6447 176.492 19.0993 175.978 19.554C175.465 19.994 174.952 20.4193 174.438 20.83C173.925 21.226 173.478 21.556 173.096 21.82H180.972V24.108H173.03V25.186C173.03 25.4353 173.008 25.7067 172.964 26C172.92 26.2787 172.862 26.5573 172.788 26.836C172.715 27.1293 172.627 27.4007 172.524 27.65C172.422 27.914 172.304 28.134 172.172 28.31H168.476C168.975 27.8993 169.364 27.408 169.642 26.836C169.921 26.2787 170.06 25.7287 170.06 25.186V24.108H160.93V21.82H170.06ZM161.524 16.342C161.994 15.726 162.456 15.0367 162.91 14.274C163.365 13.5113 163.776 12.7487 164.142 11.986H161.282V9.61H169.466V8.29H172.436V9.61H180.642V11.986H177.87C178.237 12.7487 178.633 13.504 179.058 14.252C179.484 14.9853 179.931 15.682 180.4 16.342H177.188C176.807 15.7847 176.411 15.132 176 14.384C175.59 13.6213 175.216 12.822 174.878 11.986H172.436V16.298H169.466V11.986H167.178C166.841 12.822 166.452 13.614 166.012 14.362C165.587 15.11 165.169 15.77 164.758 16.342H161.524ZM189.552 10.05C189.684 9.75667 189.794 9.456 189.882 9.148C189.985 8.84 190.073 8.554 190.146 8.29H194.062C193.989 8.554 193.886 8.84733 193.754 9.17C193.622 9.49267 193.498 9.786 193.38 10.05H201.674V28.31H184.206V10.05H189.552ZM198.55 25.714V20.39H187.352V25.714H198.55ZM187.352 17.772H198.55V12.8H187.352V17.772Z" fill="white"/>
</svg>
